<?xml version="1.0" encoding="utf-8"?>
<!-- Generator: Adobe Illustrator 19.0.0, SVG Export Plug-In . SVG Version: 6.00 Build 0)  -->
<svg fill="#fff" version="1.1" id="图层_1" xmlns="http://www.w3.org/2000/svg" xmlns:xlink="http://www.w3.org/1999/xlink" x="0px" y="0px"
	 viewBox="0 0 200 200" style="enable-background:new 0 0 200 200;" xml:space="preserve">
<path id="XMLID_16_" d="M55.1,120l1.2-2.3c0.1-0.2,0.2-0.5,0.2-0.7c3.3-0.2,6-3,6-6.3c0-3.5-2.9-6.4-6.4-6.4c-0.2,0-0.4,0-0.6,0
	l-2.7-4.7l3.8-8.7c0.2-0.5,0.3-1.1,0.1-1.7c-0.1-0.3-1.1-3.3-4.1-6.3c-3-3-5.9-3.9-6.3-4c-0.5-0.2-1.1-0.1-1.6,0.1L20.8,89.5
	c-0.8,0.2-1.5,0.6-2.1,1.2c-4.1,4.1,0.8,12.7,7.1,19c4.7,4.7,10.7,8.6,15.1,8.6c1.5,0,2.9-0.5,3.9-1.5v0c0.6-0.6,1-1.3,1.2-2
	l4.3-9.8l0.9,1.5c-1,1.1-1.6,2.6-1.6,4.2c0,2,0.9,3.7,2.3,4.9c0,0,0,0,0,0l-1.8,3.6c-6.3,0.2-11.4,5.8-11.4,12.1
	c0,1.3,1.1,2.8,2.4,2.8H60c1.3,0,2.4-1.4,2.4-2.8C62.4,126.4,59.4,121.8,55.1,120z M45.7,83.8c0.8,0.4,2.1,1.1,3.5,2.5
	c1.4,1.4,2.2,2.8,2.6,3.7l-3.6,8.3c-0.3,0.3-0.4,0.7-0.5,1.1l-3.2,7.4c-1.6-3-4-6.1-6.7-8.8c-2.7-2.7-5.8-5.1-8.8-6.7L45.7,83.8z
	 M29.2,106.5c-6.5-6.5-7.6-11.6-7.1-12.3c0.1-0.1,0.3-0.1,0.5-0.1c1.6,0,6.2,1.6,11.8,7.2c6.5,6.5,7.6,11.6,7.1,12.3
	C40.8,114.1,35.7,112.9,29.2,106.5z M57.7,110.7c0,0.9-0.7,1.6-1.6,1.6c-0.9,0-1.6-0.7-1.6-1.6c0-0.9,0.7-1.6,1.6-1.6
	C57,109.1,57.7,109.8,57.7,110.7z M44,129c1-3,3.6-4.6,6.6-4.6c3,0,5.6,1.6,6.6,4.6H44z"/>
<g id="XMLID_24_">
	<path id="XMLID_25_" d="M72,110.7V87.4h5.8v18.8h10v4.5H72z"/>
	<path id="XMLID_27_" d="M88.1,99.1c0-1.7,0.3-3.3,0.9-4.8c0.6-1.5,1.5-2.8,2.7-3.9c1.2-1.1,2.5-1.9,4-2.5c1.5-0.5,3.1-0.8,5-0.8
		c1.9,0,3.5,0.3,5,0.8c1.5,0.5,2.8,1.4,4,2.5c1.2,1.2,2.1,2.5,2.7,3.9c0.6,1.5,0.9,3.1,0.9,4.8c0,1.7-0.3,3.3-0.9,4.8
		c-0.6,1.5-1.5,2.8-2.7,3.9c-1.2,1.1-2.5,1.9-4,2.5c-1.5,0.6-3.2,0.8-5,0.8c-1.8,0-3.5-0.3-5-0.8c-1.5-0.6-2.8-1.4-4-2.5
		c-1.2-1.1-2.1-2.4-2.7-3.9C88.4,102.4,88.1,100.8,88.1,99.1z M94.1,99.1c0,2.1,0.6,3.8,1.9,5.1c1.2,1.3,2.8,2,4.8,2
		c1.9,0,3.5-0.7,4.8-2c1.2-1.3,1.9-3,1.9-5.1c0-2.1-0.6-3.8-1.9-5.1c-1.2-1.3-2.8-2-4.8-2c-1.9,0-3.5,0.7-4.8,2
		C94.7,95.3,94.1,97,94.1,99.1z"/>
	<path id="XMLID_30_" d="M116.9,110.7V87.4h8.6c3.2,0,5.5,0.5,7,1.6c1.5,1.1,2.3,2.8,2.3,5.1c0,1.3-0.3,2.4-1,3.3
		c-0.7,0.9-1.7,1.7-3.1,2.3c0.6,0.2,1.1,0.6,1.6,1.1c0.5,0.5,0.9,1.1,1.2,1.9l3.7,8h-6.6l-3-6.7c-0.5-1.1-1-1.8-1.6-2.2
		c-0.6-0.4-1.5-0.6-2.6-0.6c-0.1,0-0.2,0-0.3,0c-0.1,0-0.3,0-0.3,0v9.5H116.9z M125.6,97c1.1,0,1.9-0.2,2.4-0.7
		c0.5-0.4,0.8-1.1,0.8-2.1c0-0.9-0.3-1.5-0.8-2c-0.5-0.5-1.3-0.7-2.4-0.7h-2.8V97H125.6z"/>
	<path id="XMLID_33_" d="M139,110.7V87.4h15.5v4.3h-9.7v4.7h9.3v4.3h-9.3v5.5h10v4.4H139z"/>
	<path id="XMLID_35_" d="M158.5,110.7V87.4h5.1l7.5,9.4l7.5-9.4h5.1v23.2H178V96.3l-6.9,8.5l-6.8-8.5v14.4H158.5z"/>
</g>
<g id="XMLID_2_">
	<path id="XMLID_4_" d="M70.6,126.4v-2.1c0.7,0.4,1.3,0.8,1.8,0.9c0.5,0.2,1,0.3,1.4,0.3c0.5,0,0.8-0.1,1.1-0.2
		c0.2-0.1,0.4-0.4,0.4-0.6c0-0.2-0.1-0.4-0.2-0.6c-0.2-0.1-0.5-0.3-1.1-0.5c-1.4-0.5-2.3-1-2.8-1.5c-0.5-0.5-0.8-1.1-0.8-1.9
		c0-0.8,0.3-1.5,1-2c0.7-0.5,1.5-0.8,2.6-0.8c0.5,0,1.1,0.1,1.6,0.2c0.5,0.1,1.1,0.3,1.6,0.6v2c-0.6-0.3-1.2-0.6-1.7-0.7
		s-1-0.2-1.4-0.2c-0.5,0-0.8,0.1-1,0.2c-0.2,0.1-0.4,0.3-0.4,0.6c0,0.2,0.1,0.4,0.3,0.6c0.2,0.2,0.5,0.3,1,0.5
		c0.1,0,0.2,0.1,0.4,0.2c0.9,0.3,1.6,0.6,2,0.9c0.4,0.3,0.7,0.6,0.9,1c0.2,0.4,0.3,0.9,0.3,1.4c0,0.9-0.3,1.6-1,2.1
		c-0.7,0.5-1.6,0.8-2.8,0.8c-0.6,0-1.2-0.1-1.7-0.2C71.6,126.9,71.1,126.7,70.6,126.4z"/>
	<path id="XMLID_6_" d="M81.4,127.2v-7.8h-3.2v-1.8h8.8v1.8h-3.2v7.8H81.4z"/>
	<path id="XMLID_9_" d="M97.1,117.6v5.5c0,1.3-0.4,2.4-1.2,3.1c-0.8,0.7-1.9,1.1-3.3,1.1c-1.4,0-2.5-0.4-3.3-1.1
		c-0.8-0.7-1.2-1.8-1.2-3.1v-5.5h2.4v5.4c0,0.8,0.2,1.3,0.5,1.7s0.9,0.6,1.6,0.6c0.7,0,1.2-0.2,1.6-0.6c0.4-0.4,0.5-1,0.5-1.7v-5.4
		H97.1z"/>
	<path id="XMLID_11_" d="M98.9,127.2v-9.6h3.6c1,0,1.8,0.1,2.4,0.2s1.1,0.4,1.6,0.8c0.6,0.5,1.1,1,1.4,1.7c0.3,0.6,0.5,1.3,0.5,2.1
		c0,0.9-0.2,1.6-0.6,2.3c-0.4,0.7-0.9,1.3-1.7,1.7c-0.4,0.3-0.9,0.4-1.4,0.6c-0.5,0.1-1.2,0.2-2.2,0.2H98.9z M101.3,119.5v5.7h1.8
		c0.8,0,1.5-0.3,2-0.8c0.5-0.5,0.8-1.2,0.8-2.1s-0.3-1.5-0.8-2.1s-1.2-0.8-2-0.8H101.3z"/>
	<path id="XMLID_14_" d="M109.8,127.2v-9.6h2.5v9.6H109.8z"/>
	<path id="XMLID_21_" d="M113.7,122.4c0-0.7,0.1-1.4,0.4-2c0.3-0.6,0.6-1.1,1.1-1.6c0.5-0.5,1-0.8,1.6-1c0.6-0.2,1.3-0.3,2-0.3
		c0.8,0,1.5,0.1,2.1,0.3c0.6,0.2,1.2,0.6,1.6,1c0.5,0.5,0.9,1,1.1,1.6c0.3,0.6,0.4,1.3,0.4,2c0,0.7-0.1,1.4-0.4,2
		c-0.3,0.6-0.6,1.1-1.1,1.6c-0.5,0.5-1,0.8-1.7,1c-0.6,0.2-1.3,0.3-2.1,0.3c-0.7,0-1.4-0.1-2-0.3c-0.6-0.2-1.2-0.6-1.7-1
		c-0.5-0.5-0.9-1-1.1-1.6C113.8,123.8,113.7,123.1,113.7,122.4z M116.2,122.4c0,0.9,0.3,1.6,0.8,2.1c0.5,0.5,1.2,0.8,2,0.8
		c0.8,0,1.5-0.3,2-0.8c0.5-0.5,0.8-1.2,0.8-2.1c0-0.9-0.3-1.6-0.8-2.1c-0.5-0.6-1.2-0.8-2-0.8c-0.8,0-1.4,0.3-2,0.8
		C116.4,120.8,116.2,121.5,116.2,122.4z"/>
</g>
</svg>
