<?xml version="1.0" encoding="utf-8"?>
<!-- Generator: Adobe Illustrator 19.0.0, SVG Export Plug-In . SVG Version: 6.00 Build 0)  -->
<svg fill="#fff" version="1.1" id="图层_1" xmlns="http://www.w3.org/2000/svg" xmlns:xlink="http://www.w3.org/1999/xlink" x="0px" y="0px"
	 viewBox="0 0 200 200" style="enable-background:new 0 0 200 200;" xml:space="preserve">
<g id="XMLID_8_">
	<path id="XMLID_13_" class="st0" d="M68.1,82.9c-3.7,0-7.3-2.4-7.3-6c0-3.7,3.6-6,7.2-6c3.7,0,6,2.4,6,6
		C74.1,80.5,71.7,82.9,68.1,82.9L68.1,82.9L68.1,82.9z M101.9,70.8c3.7,0,6,2.4,6,6c0,3.6-2.4,6-6,6c-3.6,0-7.3-2.4-7.3-6
		C94.6,73.2,98.3,70.8,101.9,70.8L101.9,70.8z M128,83.9c1.5,0,3.1,0.1,4.7,0.3c-4.2-19.5-25.1-34-48.9-34
		c-26.6,0-48.5,18.1-48.5,41.2c0,13.3,7.2,24.2,19.4,32.7l-4.9,14.6l17-8.5c6,1.2,10.9,2.4,17,2.4c1.5,0,3-0.1,4.5-0.2
		c-1-3.2-1.5-6.7-1.5-10.1C86.8,101.1,104.9,83.9,128,83.9L128,83.9L128,83.9z"/>
	<path id="XMLID_9_" class="st0" d="M144.2,115.6c-2.4,0-4.8-2.4-4.8-4.8c0.1-2.4,2.4-4.9,4.8-4.9c3.7,0,6.1,2.4,6.1,4.9
		C150.4,113.2,147.9,115.6,144.2,115.6L144.2,115.6z M117.6,115.6c-2.4,0-4.8-2.4-4.8-4.8c0-2.4,2.4-4.9,4.8-4.9c3.7,0,6,2.4,6,4.9
		C123.7,113.2,121.3,115.6,117.6,115.6L117.6,115.6z M172.1,121.7c0-19.4-19.4-35.2-41.2-35.2c-23,0-41.2,15.8-41.2,35.2
		c0,19.4,18.1,35.1,41.2,35.1c4.9,0,9.7-1.3,14.5-2.4l13.3,7.3l-3.7-12.1C164.9,142.3,172.1,132.6,172.1,121.7L172.1,121.7
		L172.1,121.7z"/>
</g>
</svg>
