<?xml version="1.0" encoding="utf-8"?>
<!-- Generator: Adobe Illustrator 19.0.0, SVG Export Plug-In . SVG Version: 6.00 Build 0)  -->
<svg version="1.1" id="图层_1" xmlns="http://www.w3.org/2000/svg" xmlns:xlink="http://www.w3.org/1999/xlink" x="0px" y="0px"
	 viewBox="0 0 200 200" style="enable-background:new 0 0 200 200;" xml:space="preserve">
<style type="text/css">
	.st0{fill-rule:evenodd;clip-rule:evenodd;}
</style>
<g id="XMLID_5_">
	<path id="XMLID_6_" class="st0" d="M162.6,88.2c-3.7,2.1-9.1,3.1-13.6,3.6c7.1-6,14-12.9,16.8-21.5c3.8-11.7,3.9-22.6,0.4-34.2
		c-0.3-1-1.2-1.8-2.2-1.9c-1.1-0.2-2.1,0.3-2.7,1.1c-9.4,13.3-21.8,21.9-35.3,24.4c4-8.1,8.5-17.3,7.5-26.9c-0.1-1.1-0.8-2-1.8-2.3
		c-1-0.4-2.1-0.1-2.9,0.7C114.4,45.7,102.9,48.8,89.1,49c-15.3,0.3-29.9,7.3-40,19.3C39,80.3,34.6,95.6,36.9,110.5
		c3.7,23.9,21.6,41.9,45.5,45.7c3,0.5,6,0.7,9,0.7c19.7,0,37.3-10.4,47.4-28.5c1.2-2.1,3-4.1,5.2-5.5c9.7-6.7,16.8-15.3,20.9-25.7
		c0.6-1.4,1-3.2,1.4-4.8l0.3-1.2c0.3-1.1-0.1-2.2-1-2.9C164.7,87.7,163.5,87.7,162.6,88.2L162.6,88.2z M42.5,106.4
		c2.3,7.3,16.5,9.7,16.5,9.7C47.2,128.9,42.5,106.4,42.5,106.4L42.5,106.4z M76.8,116.2c0,0,29-3.4,40.6-13.4
		C117.4,102.8,100.6,141.2,76.8,116.2L76.8,116.2z"/>
</g>
</svg>
